<svg xmlns="http://www.w3.org/2000/svg" viewBox="0, 0, 561.69, 426.45" font-family="Roboto Mono, Menlo, monospace" font-size="14"><g fill="#D3D3D3"><rect x="0" y="0" width="561.69" height="426.45" fill="#000000"/><text x="12" y="28.55">$ node ./vite-run.js src/demo-server-function-arguments.tsx form</text><text x="12" y="49.55">[vite] connected.</text><text x="12" y="70.55">========================================================</text><text x="12" y="91.55" font-weight="bold" fill="#008B8B">Step 1/3: Server Function Arguments</text><text x="12" y="112.55">========================================================</text><text x="12" y="133.55">args =</text><text x="28.8" y="154.55">  [ FormData { greet: </text><text x="196.83" y="154.55" fill="#32CD32">&#x27;hey&#x27;</text><text x="247.24" y="154.55"> } ]</text><text x="12" y="196.55">========================================================</text><text x="12" y="217.55" font-weight="bold" fill="#008B8B">Step 2/3: encodeReply Result</text><text x="12" y="238.55">========================================================</text><text x="12" y="259.55">body =</text><text x="28.8" y="280.55">  FormData { </text><text x="121.22" y="280.55" fill="#32CD32">&#x27;0&#x27;</text><text x="146.42" y="280.55">: </text><text x="163.22" y="280.55" fill="#32CD32">&#x27;[&#x22;$K1&#x22;]&#x27;</text><text x="238.84" y="280.55">, </text><text x="255.64" y="280.55" fill="#32CD32">&#x27;1_greet&#x27;</text><text x="331.25" y="280.55">: </text><text x="348.05" y="280.55" fill="#32CD32">&#x27;hey&#x27;</text><text x="398.46" y="280.55"> }</text><text x="12" y="322.55">========================================================</text><text x="12" y="343.55" font-weight="bold" fill="#008B8B">Step 3/3: decodeReply Result</text><text x="12" y="364.55">========================================================</text><text x="12" y="385.55">args =</text><text x="28.8" y="406.55">  [ FormData { greet: </text><text x="196.83" y="406.55" fill="#32CD32">&#x27;hey&#x27;</text><text x="247.24" y="406.55"> } ]</text></g></svg>