<svg xmlns="http://www.w3.org/2000/svg" viewBox="0, 0, 729.71, 888.45" font-family="Roboto Mono, Menlo, monospace" font-size="14"><g fill="#D3D3D3"><rect x="0" y="0" width="729.71" height="888.45" fill="#000000"/><text x="12" y="28.55">$ node ./vite-run.js src/demo-rsc.tsx</text><text x="12" y="49.55">[vite] connected.</text><text x="12" y="70.55">========================================================</text><text x="12" y="91.55" font-weight="bold" fill="#008B8B">Step 1/3: Server Component Node</text><text x="12" y="112.55">========================================================</text><text x="12" y="133.55">reactNode =</text><text x="28.8" y="154.55">  {</text><text x="45.61" y="175.55" fill="#32CD32">&#x27;$$typeof&#x27;</text><text x="129.62" y="175.55">: </text><text x="146.42" y="175.55" fill="#32CD32">Symbol(react.transitional.element)</text><text x="432.07" y="175.55">,</text><text x="45.61" y="196.55">    type: </text><text x="96.01" y="196.55" fill="#008B8B">[AsyncFunction: ServerComponent]</text><text x="364.86" y="196.55">,</text><text x="45.61" y="217.55">    key: </text><text x="87.61" y="217.55" font-weight="bold">null</text><text x="121.22" y="217.55">,</text><text x="45.61" y="238.55">    ref: </text><text x="87.61" y="238.55" font-weight="bold">null</text><text x="121.22" y="238.55">,</text><text x="45.61" y="259.55">    props: {}</text><text x="28.8" y="280.55">  }</text><text x="12" y="322.55">========================================================</text><text x="12" y="343.55" font-weight="bold" fill="#008B8B">Step 2/3: RSC Stream Payload (renderToReadableStream)</text><text x="12" y="364.55">========================================================</text><text x="12" y="385.55">rscStream =</text><text x="28.8" y="406.55">  0:[&#x22;$&#x22;,&#x22;div&#x22;,null,{&#x22;children&#x22;:[&#x22;$&#x22;,&#x22;span&#x22;,null,{&#x22;children&#x22;:0.07772654817368485}]}]</text><text x="12" y="469.55">========================================================</text><text x="12" y="490.55" font-weight="bold" fill="#008B8B">Step 3/3: React Node on Client (createFromReadableStream)</text><text x="12" y="511.55">========================================================</text><text x="12" y="532.55">reactNode =</text><text x="28.8" y="553.55">  {</text><text x="45.61" y="574.55" fill="#32CD32">&#x27;$$typeof&#x27;</text><text x="129.62" y="574.55">: </text><text x="146.42" y="574.55" fill="#32CD32">Symbol(react.transitional.element)</text><text x="432.07" y="574.55">,</text><text x="45.61" y="595.55">    type: </text><text x="96.01" y="595.55" fill="#32CD32">&#x27;div&#x27;</text><text x="138.02" y="595.55">,</text><text x="45.61" y="616.55">    key: </text><text x="87.61" y="616.55" font-weight="bold">null</text><text x="121.22" y="616.55">,</text><text x="45.61" y="637.55">    ref: </text><text x="87.61" y="637.55" font-weight="bold">null</text><text x="121.22" y="637.55">,</text><text x="45.61" y="658.55">    props: {</text><text x="62.41" y="679.55">      children: {</text><text x="79.21" y="700.55" fill="#32CD32">&#x27;$$typeof&#x27;</text><text x="163.22" y="700.55">: </text><text x="180.03" y="700.55" fill="#32CD32">Symbol(react.transitional.element)</text><text x="465.67" y="700.55">,</text><text x="79.21" y="721.55">        type: </text><text x="129.62" y="721.55" fill="#32CD32">&#x27;span&#x27;</text><text x="180.03" y="721.55">,</text><text x="79.21" y="742.55">        key: </text><text x="121.22" y="742.55" font-weight="bold">null</text><text x="154.82" y="742.55">,</text><text x="79.21" y="763.55">        ref: </text><text x="121.22" y="763.55" font-weight="bold">null</text><text x="154.82" y="763.55">,</text><text x="79.21" y="784.55">        props: { children: </text><text x="238.84" y="784.55" fill="#DAA520">0.07772654817368485</text><text x="406.86" y="784.55"> }</text><text x="62.41" y="805.55">      }</text><text x="45.61" y="826.55">    }</text><text x="28.8" y="847.55">  }</text></g></svg>