<svg xmlns="http://www.w3.org/2000/svg" viewBox="0, 0, 805.33, 4038.45" font-family="Roboto Mono, Menlo, monospace" font-size="14"><g fill="#D3D3D3"><rect x="0" y="0" width="805.33" height="4038.45" fill="#000000"/><text x="12" y="28.55">$ node ./vite-run.js src/demo-use-cache.tsx</text><text x="12" y="49.55">[vite] connected.</text><text x="12" y="70.55" font-weight="bold">Run #1</text><text x="12" y="91.55">========================================================</text><text x="12" y="112.55" font-weight="bold" fill="#008B8B">Step 1/5: Encode Args as Cache Key (encodeReply)</text><text x="12" y="133.55">========================================================</text><text x="12" y="154.55" font-weight="bold">args =</text><text x="28.8" y="175.55">  [</text><text x="45.61" y="196.55">    {</text><text x="62.41" y="217.55">      children: {</text><text x="79.21" y="238.55" fill="#32CD32">&#x27;$$typeof&#x27;</text><text x="163.22" y="238.55">: </text><text x="180.03" y="238.55" fill="#32CD32">Symbol(react.transitional.element)</text><text x="465.67" y="238.55">,</text><text x="79.21" y="259.55">        type: </text><text x="129.62" y="259.55" fill="#008B8B">[Function: DynamicChild]</text><text x="331.25" y="259.55">,</text><text x="79.21" y="280.55">        key: </text><text x="121.22" y="280.55" font-weight="bold">null</text><text x="154.82" y="280.55">,</text><text x="79.21" y="301.55">        ref: </text><text x="121.22" y="301.55" font-weight="bold">null</text><text x="154.82" y="301.55">,</text><text x="79.21" y="322.55">        props: {}</text><text x="62.41" y="343.55">      }</text><text x="45.61" y="364.55">    }</text><text x="28.8" y="385.55">  ]</text><text x="12" y="427.55" font-weight="bold">encodedArgs =</text><text x="28.8" y="448.55">  [{&#x22;children&#x22;:&#x22;$T&#x22;}]</text><text x="12" y="469.55" font-weight="bold">clientTempRefs =</text><text x="28.8" y="490.55">  Map(3) {</text><text x="45.61" y="511.55" fill="#32CD32">&#x27;$0&#x27;</text><text x="87.61" y="511.55"> =&#x3E; [</text><text x="62.41" y="532.55">      {</text><text x="79.21" y="553.55">        children: {</text><text x="96.01" y="574.55" fill="#32CD32">&#x27;$$typeof&#x27;</text><text x="180.03" y="574.55">: </text><text x="196.83" y="574.55" fill="#32CD32">Symbol(react.transitional.element)</text><text x="482.48" y="574.55">,</text><text x="96.01" y="595.55">          type: </text><text x="146.42" y="595.55" fill="#008B8B">[Function: DynamicChild]</text><text x="348.05" y="595.55">,</text><text x="96.01" y="616.55">          key: </text><text x="138.02" y="616.55" font-weight="bold">null</text><text x="171.63" y="616.55">,</text><text x="96.01" y="637.55">          ref: </text><text x="138.02" y="637.55" font-weight="bold">null</text><text x="171.63" y="637.55">,</text><text x="96.01" y="658.55">          props: {}</text><text x="79.21" y="679.55">        }</text><text x="62.41" y="700.55">      }</text><text x="45.61" y="721.55">    ],</text><text x="45.61" y="742.55" fill="#32CD32">&#x27;$0:0&#x27;</text><text x="104.42" y="742.55"> =&#x3E; {</text><text x="62.41" y="763.55">      children: {</text><text x="79.21" y="784.55" fill="#32CD32">&#x27;$$typeof&#x27;</text><text x="163.22" y="784.55">: </text><text x="180.03" y="784.55" fill="#32CD32">Symbol(react.transitional.element)</text><text x="465.67" y="784.55">,</text><text x="79.21" y="805.55">        type: </text><text x="129.62" y="805.55" fill="#008B8B">[Function: DynamicChild]</text><text x="331.25" y="805.55">,</text><text x="79.21" y="826.55">        key: </text><text x="121.22" y="826.55" font-weight="bold">null</text><text x="154.82" y="826.55">,</text><text x="79.21" y="847.55">        ref: </text><text x="121.22" y="847.55" font-weight="bold">null</text><text x="154.82" y="847.55">,</text><text x="79.21" y="868.55">        props: {}</text><text x="62.41" y="889.55">      }</text><text x="45.61" y="910.55">    },</text><text x="45.61" y="931.55" fill="#32CD32">&#x27;$0:0:children&#x27;</text><text x="180.03" y="931.55"> =&#x3E; {</text><text x="62.41" y="952.55" fill="#32CD32">&#x27;$$typeof&#x27;</text><text x="146.42" y="952.55">: </text><text x="163.22" y="952.55" fill="#32CD32">Symbol(react.transitional.element)</text><text x="448.87" y="952.55">,</text><text x="62.41" y="973.55">      type: </text><text x="112.82" y="973.55" fill="#008B8B">[Function: DynamicChild]</text><text x="314.45" y="973.55">,</text><text x="62.41" y="994.55">      key: </text><text x="104.42" y="994.55" font-weight="bold">null</text><text x="138.02" y="994.55">,</text><text x="62.41" y="1015.55">      ref: </text><text x="104.42" y="1015.55" font-weight="bold">null</text><text x="138.02" y="1015.55">,</text><text x="62.41" y="1036.55">      props: {}</text><text x="45.61" y="1057.55">    }</text><text x="28.8" y="1078.55">  }</text><text x="12" y="1120.55" font-weight="bold" fill="#32CD32">cache = miss</text><text x="12" y="1162.55">========================================================</text><text x="12" y="1183.55" font-weight="bold" fill="#008B8B">Step 2/5: Decode Arguments (decodeReply)</text><text x="12" y="1204.55">========================================================</text><text x="12" y="1225.55" font-weight="bold">decodedArgs =</text><text x="28.8" y="1246.55">  [ { children: </text><text x="146.42" y="1246.55" fill="#008B8B">[Function (anonymous)]</text><text x="339.65" y="1246.55"> } ]</text><text x="12" y="1267.55" font-weight="bold">serverTempRefs =</text><text x="28.8" y="1288.55">  WeakMap { </text><text x="112.82" y="1288.55" fill="#008B8B">&#x3C;items unknown&#x3E;</text><text x="247.24" y="1288.55"> }</text><text x="12" y="1309.55" fill="#DAA520">Note: [Function (anonymous)] is a temporary reference proxy for encoded $T.</text><text x="12" y="1351.55">========================================================</text><text x="12" y="1372.55" font-weight="bold" fill="#008B8B">Step 3/5: Execute Original Function</text><text x="12" y="1393.55">========================================================</text><text x="12" y="1414.55" font-weight="bold">result =</text><text x="28.8" y="1435.55">  {</text><text x="45.61" y="1456.55" fill="#32CD32">&#x27;$$typeof&#x27;</text><text x="129.62" y="1456.55">: </text><text x="146.42" y="1456.55" fill="#32CD32">Symbol(react.transitional.element)</text><text x="432.07" y="1456.55">,</text><text x="45.61" y="1477.55">    type: </text><text x="96.01" y="1477.55" fill="#32CD32">Symbol(react.fragment)</text><text x="280.84" y="1477.55">,</text><text x="45.61" y="1498.55">    key: </text><text x="87.61" y="1498.55" font-weight="bold">null</text><text x="121.22" y="1498.55">,</text><text x="45.61" y="1519.55">    ref: </text><text x="87.61" y="1519.55" font-weight="bold">null</text><text x="121.22" y="1519.55">,</text><text x="45.61" y="1540.55">    props: {</text><text x="62.41" y="1561.55">      children: [</text><text x="79.21" y="1582.55">        {</text><text x="96.01" y="1603.55" fill="#32CD32">&#x27;$$typeof&#x27;</text><text x="180.03" y="1603.55">: </text><text x="196.83" y="1603.55" fill="#32CD32">Symbol(react.transitional.element)</text><text x="482.48" y="1603.55">,</text><text x="96.01" y="1624.55">          type: </text><text x="146.42" y="1624.55" fill="#32CD32">&#x27;span&#x27;</text><text x="196.83" y="1624.55">,</text><text x="96.01" y="1645.55">          key: </text><text x="138.02" y="1645.55" font-weight="bold">null</text><text x="171.63" y="1645.55">,</text><text x="96.01" y="1666.55">          ref: </text><text x="138.02" y="1666.55" font-weight="bold">null</text><text x="171.63" y="1666.55">,</text><text x="96.01" y="1687.55">          props: { children: [ </text><text x="272.44" y="1687.55" fill="#32CD32">&#x27;static: &#x27;</text><text x="356.46" y="1687.55">, </text><text x="373.26" y="1687.55" fill="#32CD32">&#x27;2026-02-27T05:48:55.199Z&#x27;</text><text x="600.1" y="1687.55"> ] }</text><text x="79.21" y="1708.55">        },</text><text x="79.21" y="1729.55" fill="#008B8B">[Function (anonymous)]</text><text x="62.41" y="1750.55">      ]</text><text x="45.61" y="1771.55">    }</text><text x="28.8" y="1792.55">  }</text><text x="12" y="1834.55">========================================================</text><text x="12" y="1855.55" font-weight="bold" fill="#008B8B">Step 4/5: Serialize Result and Cache (renderToReadableStream)</text><text x="12" y="1876.55">========================================================</text><text x="12" y="1897.55" font-weight="bold">stream =</text><text x="28.8" y="1918.55">  0:[[&#x22;$&#x22;,&#x22;span&#x22;,null,{&#x22;children&#x22;:[&#x22;static: &#x22;,&#x22;2026-02-27T05:48:55.199Z&#x22;]}],&#x22;$T0:0:children&#x22;]</text><text x="12" y="1939.55" fill="#DAA520">Note: static timestamp is baked into the cached RSC payload.</text><text x="12" y="1960.55" fill="#DAA520">Note: temporary reference proxy is encoded back to $T in the payload.</text><text x="12" y="2002.55">========================================================</text><text x="12" y="2023.55" font-weight="bold" fill="#008B8B">Step 5/5: Deserialize Cached RSC Stream (createFromReadableStream)</text><text x="12" y="2044.55">========================================================</text><text x="12" y="2065.55" font-weight="bold">finalResult =</text><text x="28.8" y="2086.55">  [</text><text x="45.61" y="2107.55">    {</text><text x="62.41" y="2128.55" fill="#32CD32">&#x27;$$typeof&#x27;</text><text x="146.42" y="2128.55">: </text><text x="163.22" y="2128.55" fill="#32CD32">Symbol(react.transitional.element)</text><text x="448.87" y="2128.55">,</text><text x="62.41" y="2149.55">      type: </text><text x="112.82" y="2149.55" fill="#32CD32">&#x27;span&#x27;</text><text x="163.22" y="2149.55">,</text><text x="62.41" y="2170.55">      key: </text><text x="104.42" y="2170.55" font-weight="bold">null</text><text x="138.02" y="2170.55">,</text><text x="62.41" y="2191.55">      ref: </text><text x="104.42" y="2191.55" font-weight="bold">null</text><text x="138.02" y="2191.55">,</text><text x="62.41" y="2212.55">      props: { children: [ </text><text x="238.84" y="2212.55" fill="#32CD32">&#x27;static: &#x27;</text><text x="322.85" y="2212.55">, </text><text x="339.65" y="2212.55" fill="#32CD32">&#x27;2026-02-27T05:48:55.199Z&#x27;</text><text x="566.49" y="2212.55"> ] }</text><text x="45.61" y="2233.55">    },</text><text x="45.61" y="2254.55">    {</text><text x="62.41" y="2275.55" fill="#32CD32">&#x27;$$typeof&#x27;</text><text x="146.42" y="2275.55">: </text><text x="163.22" y="2275.55" fill="#32CD32">Symbol(react.transitional.element)</text><text x="448.87" y="2275.55">,</text><text x="62.41" y="2296.55">      type: </text><text x="112.82" y="2296.55" fill="#008B8B">[Function: DynamicChild]</text><text x="314.45" y="2296.55">,</text><text x="62.41" y="2317.55">      key: </text><text x="104.42" y="2317.55" font-weight="bold">null</text><text x="138.02" y="2317.55">,</text><text x="62.41" y="2338.55">      ref: </text><text x="104.42" y="2338.55" font-weight="bold">null</text><text x="138.02" y="2338.55">,</text><text x="62.41" y="2359.55">      props: {}</text><text x="45.61" y="2380.55">    }</text><text x="28.8" y="2401.55">  ]</text><text x="12" y="2422.55" fill="#DAA520">Note: $T in payload is restored to the latest &#x3C;DynamicChild /&#x3E; reference.</text><text x="12" y="2464.55" font-weight="bold">Run #2 (same args shape)</text><text x="12" y="2485.55">========================================================</text><text x="12" y="2506.55" font-weight="bold" fill="#008B8B">Step 1/5: Encode Args as Cache Key (encodeReply)</text><text x="12" y="2527.55">========================================================</text><text x="12" y="2548.55" font-weight="bold">args =</text><text x="28.8" y="2569.55">  [</text><text x="45.61" y="2590.55">    {</text><text x="62.41" y="2611.55">      children: {</text><text x="79.21" y="2632.55" fill="#32CD32">&#x27;$$typeof&#x27;</text><text x="163.22" y="2632.55">: </text><text x="180.03" y="2632.55" fill="#32CD32">Symbol(react.transitional.element)</text><text x="465.67" y="2632.55">,</text><text x="79.21" y="2653.55">        type: </text><text x="129.62" y="2653.55" fill="#008B8B">[Function: DynamicChild]</text><text x="331.25" y="2653.55">,</text><text x="79.21" y="2674.55">        key: </text><text x="121.22" y="2674.55" font-weight="bold">null</text><text x="154.82" y="2674.55">,</text><text x="79.21" y="2695.55">        ref: </text><text x="121.22" y="2695.55" font-weight="bold">null</text><text x="154.82" y="2695.55">,</text><text x="79.21" y="2716.55">        props: {}</text><text x="62.41" y="2737.55">      }</text><text x="45.61" y="2758.55">    }</text><text x="28.8" y="2779.55">  ]</text><text x="12" y="2821.55" font-weight="bold">encodedArgs =</text><text x="28.8" y="2842.55">  [{&#x22;children&#x22;:&#x22;$T&#x22;}]</text><text x="12" y="2863.55" font-weight="bold">clientTempRefs =</text><text x="28.8" y="2884.55">  Map(3) {</text><text x="45.61" y="2905.55" fill="#32CD32">&#x27;$0&#x27;</text><text x="87.61" y="2905.55"> =&#x3E; [</text><text x="62.41" y="2926.55">      {</text><text x="79.21" y="2947.55">        children: {</text><text x="96.01" y="2968.55" fill="#32CD32">&#x27;$$typeof&#x27;</text><text x="180.03" y="2968.55">: </text><text x="196.83" y="2968.55" fill="#32CD32">Symbol(react.transitional.element)</text><text x="482.48" y="2968.55">,</text><text x="96.01" y="2989.55">          type: </text><text x="146.42" y="2989.55" fill="#008B8B">[Function: DynamicChild]</text><text x="348.05" y="2989.55">,</text><text x="96.01" y="3010.55">          key: </text><text x="138.02" y="3010.55" font-weight="bold">null</text><text x="171.63" y="3010.55">,</text><text x="96.01" y="3031.55">          ref: </text><text x="138.02" y="3031.55" font-weight="bold">null</text><text x="171.63" y="3031.55">,</text><text x="96.01" y="3052.55">          props: {}</text><text x="79.21" y="3073.55">        }</text><text x="62.41" y="3094.55">      }</text><text x="45.61" y="3115.55">    ],</text><text x="45.61" y="3136.55" fill="#32CD32">&#x27;$0:0&#x27;</text><text x="104.42" y="3136.55"> =&#x3E; {</text><text x="62.41" y="3157.55">      children: {</text><text x="79.21" y="3178.55" fill="#32CD32">&#x27;$$typeof&#x27;</text><text x="163.22" y="3178.55">: </text><text x="180.03" y="3178.55" fill="#32CD32">Symbol(react.transitional.element)</text><text x="465.67" y="3178.55">,</text><text x="79.21" y="3199.55">        type: </text><text x="129.62" y="3199.55" fill="#008B8B">[Function: DynamicChild]</text><text x="331.25" y="3199.55">,</text><text x="79.21" y="3220.55">        key: </text><text x="121.22" y="3220.55" font-weight="bold">null</text><text x="154.82" y="3220.55">,</text><text x="79.21" y="3241.55">        ref: </text><text x="121.22" y="3241.55" font-weight="bold">null</text><text x="154.82" y="3241.55">,</text><text x="79.21" y="3262.55">        props: {}</text><text x="62.41" y="3283.55">      }</text><text x="45.61" y="3304.55">    },</text><text x="45.61" y="3325.55" fill="#32CD32">&#x27;$0:0:children&#x27;</text><text x="180.03" y="3325.55"> =&#x3E; {</text><text x="62.41" y="3346.55" fill="#32CD32">&#x27;$$typeof&#x27;</text><text x="146.42" y="3346.55">: </text><text x="163.22" y="3346.55" fill="#32CD32">Symbol(react.transitional.element)</text><text x="448.87" y="3346.55">,</text><text x="62.41" y="3367.55">      type: </text><text x="112.82" y="3367.55" fill="#008B8B">[Function: DynamicChild]</text><text x="314.45" y="3367.55">,</text><text x="62.41" y="3388.55">      key: </text><text x="104.42" y="3388.55" font-weight="bold">null</text><text x="138.02" y="3388.55">,</text><text x="62.41" y="3409.55">      ref: </text><text x="104.42" y="3409.55" font-weight="bold">null</text><text x="138.02" y="3409.55">,</text><text x="62.41" y="3430.55">      props: {}</text><text x="45.61" y="3451.55">    }</text><text x="28.8" y="3472.55">  }</text><text x="12" y="3514.55" font-weight="bold" fill="#9932CC">cache = hit (skip Steps 2-4)</text><text x="12" y="3556.55">========================================================</text><text x="12" y="3577.55" font-weight="bold" fill="#008B8B">Step 5/5: Deserialize Cached RSC Stream (createFromReadableStream)</text><text x="12" y="3598.55">========================================================</text><text x="12" y="3619.55" font-weight="bold">finalResult =</text><text x="28.8" y="3640.55">  [</text><text x="45.61" y="3661.55">    {</text><text x="62.41" y="3682.55" fill="#32CD32">&#x27;$$typeof&#x27;</text><text x="146.42" y="3682.55">: </text><text x="163.22" y="3682.55" fill="#32CD32">Symbol(react.transitional.element)</text><text x="448.87" y="3682.55">,</text><text x="62.41" y="3703.55">      type: </text><text x="112.82" y="3703.55" fill="#32CD32">&#x27;span&#x27;</text><text x="163.22" y="3703.55">,</text><text x="62.41" y="3724.55">      key: </text><text x="104.42" y="3724.55" font-weight="bold">null</text><text x="138.02" y="3724.55">,</text><text x="62.41" y="3745.55">      ref: </text><text x="104.42" y="3745.55" font-weight="bold">null</text><text x="138.02" y="3745.55">,</text><text x="62.41" y="3766.55">      props: { children: [ </text><text x="238.84" y="3766.55" fill="#32CD32">&#x27;static: &#x27;</text><text x="322.85" y="3766.55">, </text><text x="339.65" y="3766.55" fill="#32CD32">&#x27;2026-02-27T05:48:55.199Z&#x27;</text><text x="566.49" y="3766.55"> ] }</text><text x="45.61" y="3787.55">    },</text><text x="45.61" y="3808.55">    {</text><text x="62.41" y="3829.55" fill="#32CD32">&#x27;$$typeof&#x27;</text><text x="146.42" y="3829.55">: </text><text x="163.22" y="3829.55" fill="#32CD32">Symbol(react.transitional.element)</text><text x="448.87" y="3829.55">,</text><text x="62.41" y="3850.55">      type: </text><text x="112.82" y="3850.55" fill="#008B8B">[Function: DynamicChild]</text><text x="314.45" y="3850.55">,</text><text x="62.41" y="3871.55">      key: </text><text x="104.42" y="3871.55" font-weight="bold">null</text><text x="138.02" y="3871.55">,</text><text x="62.41" y="3892.55">      ref: </text><text x="104.42" y="3892.55" font-weight="bold">null</text><text x="138.02" y="3892.55">,</text><text x="62.41" y="3913.55">      props: {}</text><text x="45.61" y="3934.55">    }</text><text x="28.8" y="3955.55">  ]</text><text x="12" y="3976.55" fill="#DAA520">Note: $T in payload is restored to the latest &#x3C;DynamicChild /&#x3E; reference.</text></g></svg>